<svg width="64" height="64" viewBox="0 0 64 64" fill="none" xmlns="http://www.w3.org/2000/svg">
<g clip-path="url(#clip0_201_3)">
<path d="M64 32C64 49.6731 49.6731 64 32 64C14.3269 64 0 49.6731 0 32C0 14.3269 14.3269 0 32 0C49.6731 0 64 14.3269 64 32Z" fill="white"/>
<path d="M22 21C22 25.4183 18.4183 29 14 29C9.58172 29 6 25.4183 6 21C6 16.5817 9.58172 13 14 13C18.4183 13 22 16.5817 22 21Z" fill="black"/>
<path d="M28 40C28 43.3137 25.3137 46 22 46C18.6863 46 16 43.3137 16 40C16 36.6863 18.6863 34 22 34C25.3137 34 28 36.6863 28 40Z" fill="black"/>
<path d="M48 40C48 43.3137 45.3137 46 42 46C38.6863 46 36 43.3137 36 40C36 36.6863 38.6863 34 42 34C45.3137 34 48 36.6863 48 40Z" fill="black"/>
<path d="M58 21C58 25.4183 54.4183 29 50 29C45.5817 29 42 25.4183 42 21C42 16.5817 45.5817 13 50 13C54.4183 13 58 16.5817 58 21Z" fill="black"/>
</g>
<defs>
<clipPath id="clip0_201_3">
<rect width="64" height="64" fill="white"/>
</clipPath>
</defs>
</svg>
