<svg width="32" height="32" viewBox="0 0 32 32" fill="none" xmlns="http://www.w3.org/2000/svg">
<g clip-path="url(#clip0_204_29)">
<path d="M32 16C32 24.8366 24.8366 32 16 32C7.16344 32 0 24.8366 0 16C0 7.16344 7.16344 0 16 0C24.8366 0 32 7.16344 32 16Z" fill="white"/>
<path d="M11 10.5C11 12.7091 9.20914 14.5 7 14.5C4.79086 14.5 3 12.7091 3 10.5C3 8.29086 4.79086 6.5 7 6.5C9.20914 6.5 11 8.29086 11 10.5Z" fill="black"/>
<path d="M14 20C14 21.6568 12.6569 23 11 23C9.34315 23 8 21.6568 8 20C8 18.3431 9.34315 17 11 17C12.6569 17 14 18.3431 14 20Z" fill="black"/>
<path d="M24 20C24 21.6569 22.6569 23 21 23C19.3431 23 18 21.6569 18 20C18 18.3431 19.3431 17 21 17C22.6569 17 24 18.3431 24 20Z" fill="black"/>
<path d="M29 10.5C29 12.7091 27.2091 14.5 25 14.5C22.7909 14.5 21 12.7091 21 10.5C21 8.29086 22.7909 6.5 25 6.5C27.2091 6.5 29 8.29086 29 10.5Z" fill="black"/>
</g>
<defs>
<clipPath id="clip0_204_29">
<rect width="32" height="32" fill="white"/>
</clipPath>
</defs>
</svg>
